<svg xmlns="http://www.w3.org/2000/svg" width="160" height="40" viewBox="0 0 160 40">
  <!-- Lightbulb icon -->
  <g transform="translate(0, 0)">
    <circle cx="20" cy="20" r="18" fill="none" stroke="#a855f7" stroke-width="2"/>
    <path d="M20 6C14.5 6 10 10.5 10 16C10 19.5 12 22.5 15 24V26C15 27.1 15.9 28 17 28H23C24.1 28 25 27.1 25 26V24C28 22.5 30 19.5 30 16C30 10.5 25.5 6 20 6Z" fill="#a855f7"/>
    <rect x="18" y="28" width="4" height="6" rx="1" fill="#a855f7"/>
  </g>
  
  <!-- Current/Electricity icon -->
  <g transform="translate(40, 0)">
    <circle cx="20" cy="20" r="18" fill="none" stroke="#3b82f6" stroke-width="2"/>
    <path d="M20 6L14 20H20L14 34L26 16H20L26 6H20Z" fill="#3b82f6"/>
  </g>
  
  <!-- Tesla Coil icon -->
  <g transform="translate(80, 0)">
    <circle cx="20" cy="20" r="18" fill="none" stroke="#a855f7" stroke-width="2"/>
    <rect x="18" y="6" width="4" height="10" fill="#a855f7"/>
    <rect x="14" y="16" width="12" height="4" fill="#a855f7"/>
    <path d="M18 20V28M22 20V28M16 24H24M14 28H26" stroke="#a855f7" stroke-width="2" fill="none"/>
    <rect x="12" y="28" width="16" height="4" rx="1" fill="#a855f7"/>
  </g>
  
  <!-- Wireless icon -->
  <g transform="translate(120, 0)">
    <circle cx="20" cy="20" r="18" fill="none" stroke="#3b82f6" stroke-width="2"/>
    <path d="M10 16C14 10 26 10 30 16M13 20C16 16 24 16 27 20M16 24C18 22 22 22 24 24" stroke="#3b82f6" stroke-width="2" fill="none" stroke-linecap="round"/>
    <circle cx="20" cy="28" r="2" fill="#3b82f6"/>
  </g>
</svg> 